<?xml version="1.0" encoding="utf-8"?>
<!-- Generator: Adobe Illustrator 24.0.0, SVG Export Plug-In . SVG Version: 6.00 Build 0)  -->
<svg version="1.1" id="Layer_1" xmlns="http://www.w3.org/2000/svg" xmlns:xlink="http://www.w3.org/1999/xlink" x="0px" y="0px"
	 viewBox="0 0 441.6 353.6" style="enable-background:new 0 0 441.6 353.6;" xml:space="preserve">
<g>
	<path d="M180.3,157.2h32.1c26.8,0,47.4-13.4,47.4-43.1s-20.6-43.6-39.8-43.6s-38.3,13.9-38.3,43.6h-72.8
		c0-61.8,47.4-111.2,111.2-111.2c63.7,0,112.6,49.4,112.6,111.2s-48.9,110.7-120.3,110.7h-32.1V157.2z M158.7,299
		c0-16.3,7.2-30.7,19.2-40.2h65.2c11.5,9.6,19.2,24,19.2,40.2c0,28.8-23,51.8-51.7,51.8C181.7,350.7,158.7,327.7,158.7,299z"/>
</g>
</svg>
